<svg xmlns="http://www.w3.org/2000/svg" viewBox="0 0 460 780" width="460" height="780">
  <defs>
    <marker id="arrow" viewBox="0 0 10 10" refX="10" refY="5" markerWidth="8" markerHeight="8" orient="auto-start-reverse">
      <path d="M 0 0 L 10 5 L 0 10 z" fill="#333"/>
    </marker>
    <style>
      text { font-family: Arial, sans-serif; font-size: 13px; fill: white; text-anchor: middle; dominant-baseline: central; }
      .label { fill: #555; font-size: 11px; }
      line, polyline { stroke: #333; stroke-width: 1.5; marker-end: url(#arrow); fill: none; }
    </style>
  </defs>

  <!-- Title -->
  <text x="230" y="20" fill="#333" font-size="16" font-weight="bold">/loop-review</text>

  <!-- Step 0: Session Setup -->
  <rect x="140" y="40" width="180" height="40" rx="4" fill="#6C757D"/>
  <text x="230" y="60">Session Setup</text>
  <line x1="230" y1="80" x2="230" y2="110"/>

  <!-- Step 1: Partition Repo -->
  <rect x="140" y="110" width="180" height="40" rx="4" fill="#4A90D9"/>
  <text x="230" y="130">Partition Repository</text>
  <line x1="230" y1="150" x2="230" y2="190"/>

  <!-- Loop start label -->
  <text x="230" y="188" fill="#555" font-size="11">Per-Slice Loop</text>
  <rect x="55" y="195" width="350" height="400" rx="8" fill="none" stroke="#999" stroke-width="1" stroke-dasharray="5,3"/>

  <!-- Step 3c: Launch Reviewers -->
  <rect x="80" y="210" width="300" height="36" rx="4" fill="#17A2B8" stroke="#17A2B8" stroke-width="3"/>
  <text x="230" y="228">Reviewers (Claude + Codex + Cursor)</text>
  <line x1="230" y1="246" x2="230" y2="266"/>

  <!-- Step 3d: Classify Findings -->
  <rect x="130" y="266" width="200" height="36" rx="4" fill="#4A90D9"/>
  <text x="230" y="284">Classify (FILE / HOLD / DROP)</text>
  <line x1="230" y1="302" x2="230" y2="322"/>

  <!-- Decision diamond -->
  <polygon points="230,322 340,352 230,382 120,352" fill="#F0AD4E"/>
  <text x="230" y="348" font-size="11">Focus area</text>
  <text x="230" y="362" font-size="11">= security?</text>

  <!-- HOLD arrow (right) -->
  <text x="365" y="348" class="label">yes</text>
  <polyline points="340,352 375,352 375,400 330,400" stroke="#333" stroke-width="1.5" fill="none" marker-end="url(#arrow)"/>

  <!-- FILE arrow (down) -->
  <text x="215" y="390" class="label">no</text>
  <line x1="230" y1="382" x2="230" y2="425"/>

  <!-- HOLD node: security-findings.md -->
  <rect x="200" y="380" width="130" height="36" rx="4" fill="#8E44AD"/>
  <text x="265" y="398" font-size="11">security-findings.md</text>

  <!-- Accumulate -->
  <rect x="130" y="425" width="200" height="36" rx="4" fill="#4A90D9"/>
  <text x="230" y="443" font-size="11">findings-accumulated.md</text>
  <line x1="230" y1="461" x2="230" y2="481"/>

  <!-- Decision: Flush batch? -->
  <polygon points="230,481 340,511 230,541 120,511" fill="#F0AD4E"/>
  <text x="230" y="508" font-size="12">Flush via</text>
  <text x="230" y="522" font-size="10">/issue?</text>

  <!-- Next slice arrow -->
  <text x="355" y="506" class="label">next slice</text>
  <polyline points="340,511 380,511 380,228 370,228" fill="none" marker-end="url(#arrow)"/>

  <text x="215" y="530" class="label">yes</text>
  <line x1="230" y1="541" x2="230" y2="575"/>

  <!-- /issue invocation -->
  <rect x="90" y="575" width="280" height="36" rx="4" fill="#7B68EE"/>
  <text x="230" y="593" font-size="11">Flush Batch (/issue --label loop-review)</text>

  <!-- Loop back to next slice after flush -->
  <polyline points="370,593 395,593 395,228 370,228" fill="none" marker-end="url(#arrow)"/>
  <text x="410" y="400" class="label" style="writing-mode: tb;">resume</text>

  <line x1="230" y1="611" x2="230" y2="665"/>

  <!-- Step 4: Final Summary -->
  <rect x="140" y="665" width="180" height="36" rx="4" fill="#4A90D9"/>
  <text x="230" y="683">Final Summary</text>
  <line x1="230" y1="701" x2="230" y2="721"/>

  <!-- Step 5: Cleanup -->
  <rect x="140" y="721" width="180" height="36" rx="4" fill="#6C757D"/>
  <text x="230" y="739">Cleanup</text>
</svg>
